<svg xmlns="http://www.w3.org/2000/svg" viewBox="0 0 128 128">
  <circle cx="64" cy="64" r="64" fill="#2B3054"/>
  <defs>
    <g id="n0">
      <path fill-rule="evenodd" d="M4 2h12c2.2 0 4 1.8 4 4v16c0 2.2-1.8 4-4 4H4c-2.2 0-4-1.8-4-4V6c0-2.2 1.8-4 4-4zm2.4 5.2h7.2c1 0 1.8.8 1.8 1.8v10c0 1-.8 1.8-1.8 1.8H6.4c-1 0-1.8-.8-1.8-1.8v-10c0-1 .8-1.8 1.8-1.8z"/>
    </g>
    <g id="n1">
      <rect x="7.2" y="2" width="5.6" height="24" rx="1.4"/>
      <rect x="2.8" y="6.2" width="10" height="5.2" rx="1.4"/>
      <rect x="2.8" y="20.8" width="14.4" height="5.2" rx="1.4"/>
    </g>
    <g id="n2">
      <rect x="1.2" y="2" width="17.6" height="5.4" rx="1.4"/>
      <rect x="13.4" y="2" width="5.4" height="12.4" rx="1.4"/>
      <rect x="1.2" y="11.2" width="17.6" height="5.4" rx="1.4"/>
      <rect x="1.2" y="13.4" width="5.4" height="12.6" rx="1.4"/>
      <rect x="1.2" y="20.6" width="17.6" height="5.4" rx="1.4"/>
    </g>
    <g id="n4">
      <rect x="1.2" y="2" width="5.4" height="16" rx="1.4"/>
      <rect x="1.2" y="11.4" width="17.6" height="5.4" rx="1.4"/>
      <rect x="13.4" y="2" width="5.4" height="24" rx="1.4"/>
    </g>
  </defs>
  <g fill="#E8D4B8" transform="translate(26.4 16) scale(0.8)">
    <use href="#n2" x="0"/>
    <use href="#n4" x="19.2"/>
    <use href="#n2" x="38.4"/>
    <use href="#n0" x="57.6"/>
  </g>
  <g fill="#F0C44C" transform="translate(14.8 44) scale(1.14)">
    <use href="#n1" x="0"/>
    <use href="#n0" x="19.2"/>
    <use href="#n2" x="38.4"/>
    <use href="#n4" x="57.6"/>
  </g>
  <g fill="#E8D4B8" transform="translate(26.4 86) scale(0.8)">
    <use href="#n2" x="0"/>
    <use href="#n0" x="19.2"/>
    <use href="#n1" x="38.4"/>
    <use href="#n1" x="57.6"/>
  </g>
</svg>
